{
  "accessors": [
    {
      "bufferView": 2,
      "componentType": 5126,
      "count": 4564,
      "max": [
        2.761223316192627,
        2.313352346420288,
        0.7351290583610535
      ],
      "min": [
        -2.266263008117676,
        -3.832571506500244,
        -0.5080850720405579
      ],
      "type": "VEC3"
    },
    {
      "bufferView": 2,
      "byteOffset": 54768,
      "componentType": 5126,
      "count": 4564,
      "max": [
        1.0,
        1.0,
        1.0
      ],
      "min": [
        -1.0,
        -1.0,
        -1.0
      ],
      "type": "VEC3"
    },
    {
      "bufferView": 3,
      "componentType": 5126,
      "count": 4564,
      "max": [
        1.0,
        1.0,
        1.0,
        1.0
      ],
      "min": [
        -1.0,
        -1.0,
        -1.0,
        -1.0
      ],
      "type": "VEC4"
    },
    {
      "bufferView": 1,
      "componentType": 5126,
      "count": 4564,
      "max": [
        1.0,
        0.9725738167762756
      ],
      "min": [
        -9.944121082128277e-09,
        -4.970076972199422e-08
      ],
      "type": "VEC2"
    },
    {
      "bufferView": 1,
      "byteOffset": 36512,
      "componentType": 5126,
      "count": 4564,
      "max": [
        1.0,
        0.9725738167762756
      ],
      "min": [
        -9.944121082128277e-09,
        -4.970076972199422e-08
      ],
      "type": "VEC2"
    },
    {
      "bufferView": 1,
      "byteOffset": 73024,
      "componentType": 5126,
      "count": 4564,
      "max": [
        1.0,
        0.9725738167762756
      ],
      "min": [
        -9.944121082128277e-09,
        -4.970076972199422e-08
      ],
      "type": "VEC2"
    },
    {
      "bufferView": 0,
      "componentType": 5125,
      "count": 9864,
      "type": "SCALAR"
    }
  ],
  "asset": {
    "extras": {
      "author": "leoxx300 (https://sketchfab.com/leoxx300)",
      "license": "CC-BY-4.0 (http://creativecommons.org/licenses/by/4.0/)",
      "source": "https://sketchfab.com/3d-models/low-poly-crossbow-a5f8c98424e1495281a7a027979d4a11",
      "title": "low poly crossbow"
    },
    "generator": "Sketchfab-16.59.0",
    "version": "2.0"
  },
  "bufferViews": [
    {
      "buffer": 0,
      "byteLength": 39456,
      "name": "floatBufferViews",
      "target": 34963
    },
    {
      "buffer": 0,
      "byteLength": 109536,
      "byteOffset": 39456,
      "byteStride": 8,
      "name": "floatBufferViews",
      "target": 34962
    },
    {
      "buffer": 0,
      "byteLength": 109536,
      "byteOffset": 148992,
      "byteStride": 12,
      "name": "floatBufferViews",
      "target": 34962
    },
    {
      "buffer": 0,
      "byteLength": 73024,
      "byteOffset": 258528,
      "byteStride": 16,
      "name": "floatBufferViews",
      "target": 34962
    }
  ],
  "buffers": [
    {
      "byteLength": 331552,
      "uri": "scene.bin"
    }
  ],
  "images": [
    {
      "uri": "textures/ROPE_baseColor.png"
    },
    {
      "uri": "textures/ROPE_metallicRoughness.png"
    },
    {
      "uri": "textures/ROPE_normal.png"
    }
  ],
  "materials": [
    {
      "doubleSided": true,
      "name": "ROPE",
      "normalTexture": {
        "index": 2
      },
      "pbrMetallicRoughness": {
        "baseColorTexture": {
          "index": 0
        },
        "metallicRoughnessTexture": {
          "index": 1
        }
      }
    }
  ],
  "meshes": [
    {
      "name": "crossbow_ROPE_0",
      "primitives": [
        {
          "attributes": {
            "NORMAL": 1,
            "POSITION": 0,
            "TANGENT": 2,
            "TEXCOORD_0": 3,
            "TEXCOORD_1": 4,
            "TEXCOORD_2": 5
          },
          "indices": 6,
          "material": 0,
          "mode": 4
        }
      ]
    }
  ],
  "nodes": [
    {
      "children": [
        1
      ],
      "matrix": [
        1.0,
        0.0,
        0.0,
        0.0,
        0.0,
        2.220446049250313e-16,
        -1.0,
        0.0,
        0.0,
        1.0,
        2.220446049250313e-16,
        0.0,
        0.0,
        0.0,
        0.0,
        1.0
      ],
      "name": "Sketchfab_model"
    },
    {
      "children": [
        2
      ],
      "matrix": [
        0.009999999776482582,
        0.0,
        0.0,
        0.0,
        0.0,
        0.0,
        0.009999999776482582,
        0.0,
        0.0,
        -0.009999999776482582,
        0.0,
        0.0,
        0.0,
        0.0,
        0.0,
        1.0
      ],
      "name": "70b8946ec00e4262915c53b0ce21c44a.fbx"
    },
    {
      "children": [
        3
      ],
      "name": "RootNode"
    },
    {
      "children": [
        4
      ],
      "matrix": [
        69.82661437988281,
        0.0,
        0.0,
        0.0,
        -0.0,
        -1.1376199454401933e-05,
        -69.82661437988189,
        0.0,
        0.0,
        69.82661437988189,
        -1.1376199454401933e-05,
        0.0,
        -36.358642578125,
        -1.7634689807891846,
        -46.126869201660156,
        1.0
      ],
      "name": "crossbow"
    },
    {
      "mesh": 0,
      "name": "crossbow_ROPE_0"
    }
  ],
  "samplers": [
    {
      "magFilter": 9729,
      "minFilter": 9987,
      "wrapS": 10497,
      "wrapT": 10497
    }
  ],
  "scene": 0,
  "scenes": [
    {
      "name": "Sketchfab_Scene",
      "nodes": [
        0
      ]
    }
  ],
  "textures": [
    {
      "sampler": 0,
      "source": 0
    },
    {
      "sampler": 0,
      "source": 1
    },
    {
      "sampler": 0,
      "source": 2
    }
  ]
}
