{
  "accessors": [
    {
      "bufferView": 2,
      "componentType": 5126,
      "count": 513,
      "max": [
        2.9101505279541016,
        18.671777725219727,
        84.75592803955078
      ],
      "min": [
        -2.9101505279541016,
        -18.671777725219727,
        -84.75592803955078
      ],
      "type": "VEC3"
    },
    {
      "bufferView": 2,
      "byteOffset": 6156,
      "componentType": 5126,
      "count": 513,
      "max": [
        1.0,
        0.9999960064888,
        0.9964277744293213
      ],
      "min": [
        -0.9999871850013733,
        -0.9999983310699463,
        -0.9924546480178833
      ],
      "type": "VEC3"
    },
    {
      "bufferView": 3,
      "componentType": 5126,
      "count": 513,
      "max": [
        0.9999980330467224,
        1.0,
        0.9834907650947571,
        1.0
      ],
      "min": [
        -0.9999967813491821,
        -0.9999873638153076,
        -0.978797197341919,
        1.0
      ],
      "type": "VEC4"
    },
    {
      "bufferView": 1,
      "componentType": 5126,
      "count": 513,
      "max": [
        0.9936589598655701,
        0.9974983334541321
      ],
      "min": [
        0.0024983587209135294,
        0.002498760586604476
      ],
      "type": "VEC2"
    },
    {
      "bufferView": 0,
      "componentType": 5125,
      "count": 2274,
      "type": "SCALAR"
    }
  ],
  "asset": {
    "extras": {
      "author": "Batuhan13 (https://sketchfab.com/Batuhan13)",
      "license": "CC-BY-4.0 (http://creativecommons.org/licenses/by/4.0/)",
      "source": "https://sketchfab.com/3d-models/arrow-3a5ef16a4fd6452c87cc904ef10e133c",
      "title": "Arrow"
    },
    "generator": "Sketchfab-12.65.0",
    "version": "2.0"
  },
  "bufferViews": [
    {
      "buffer": 0,
      "byteLength": 9096,
      "name": "floatBufferViews",
      "target": 34963
    },
    {
      "buffer": 0,
      "byteLength": 4104,
      "byteOffset": 9096,
      "byteStride": 8,
      "name": "floatBufferViews",
      "target": 34962
    },
    {
      "buffer": 0,
      "byteLength": 12312,
      "byteOffset": 13200,
      "byteStride": 12,
      "name": "floatBufferViews",
      "target": 34962
    },
    {
      "buffer": 0,
      "byteLength": 8208,
      "byteOffset": 25512,
      "byteStride": 16,
      "name": "floatBufferViews",
      "target": 34962
    }
  ],
  "buffers": [
    {
      "byteLength": 33720,
      "uri": "scene.bin"
    }
  ],
  "images": [
    {
      "uri": "textures/Arrow_baseColor.png"
    },
    {
      "uri": "textures/Arrow_metallicRoughness.png"
    },
    {
      "uri": "textures/Arrow_normal.png"
    }
  ],
  "materials": [
    {
      "alphaCutoff": 0.15947246043310292,
      "alphaMode": "MASK",
      "doubleSided": true,
      "name": "Arrow",
      "normalTexture": {
        "index": 2
      },
      "occlusionTexture": {
        "index": 1
      },
      "pbrMetallicRoughness": {
        "baseColorTexture": {
          "index": 0
        },
        "metallicRoughnessTexture": {
          "index": 1
        }
      }
    }
  ],
  "meshes": [
    {
      "name": "Circle_Arrow_0",
      "primitives": [
        {
          "attributes": {
            "NORMAL": 1,
            "POSITION": 0,
            "TANGENT": 2,
            "TEXCOORD_0": 3
          },
          "indices": 4,
          "material": 0,
          "mode": 4
        }
      ]
    }
  ],
  "nodes": [
    {
      "children": [
        1
      ],
      "matrix": [
        1.0,
        0.0,
        0.0,
        0.0,
        0.0,
        2.220446049250313e-16,
        -1.0,
        0.0,
        0.0,
        1.0,
        2.220446049250313e-16,
        0.0,
        0.0,
        0.0,
        0.0,
        1.0
      ],
      "name": "Sketchfab_model"
    },
    {
      "children": [
        2
      ],
      "matrix": [
        1.0,
        0.0,
        0.0,
        0.0,
        0.0,
        0.0,
        1.0,
        0.0,
        0.0,
        -1.0,
        0.0,
        0.0,
        0.0,
        0.0,
        0.0,
        1.0
      ],
      "name": "483e2c0d80a84174b6e899983048a934.fbx"
    },
    {
      "children": [
        3
      ],
      "name": "RootNode"
    },
    {
      "children": [
        4
      ],
      "matrix": [
        1.0,
        0.0,
        0.0,
        0.0,
        0.0,
        1.0,
        0.0,
        0.0,
        0.0,
        0.0,
        1.0,
        0.0,
        0.11678934097290039,
        -0.6940819025039673,
        2.551978826522827,
        1.0
      ],
      "name": "Circle"
    },
    {
      "mesh": 0,
      "name": "Circle_Arrow_0"
    }
  ],
  "samplers": [
    {
      "magFilter": 9729,
      "minFilter": 9987,
      "wrapS": 10497,
      "wrapT": 10497
    }
  ],
  "scene": 0,
  "scenes": [
    {
      "name": "Sketchfab_Scene",
      "nodes": [
        0
      ]
    }
  ],
  "textures": [
    {
      "sampler": 0,
      "source": 0
    },
    {
      "sampler": 0,
      "source": 1
    },
    {
      "sampler": 0,
      "source": 2
    }
  ]
}
